<?xml version="1.0" encoding="utf-8"?>
<!-- Generator: Adobe Illustrator 24.0.0, SVG Export Plug-In . SVG Version: 6.00 Build 0)  -->
<svg version="1.1" id="图层_1" xmlns="http://www.w3.org/2000/svg" xmlns:xlink="http://www.w3.org/1999/xlink" x="0px" y="0px"
	 viewBox="0 0 795 150" style="enable-background:new 0 0 795 150;" xml:space="preserve">
<style type="text/css">
	.st0{fill:#FFFFFF;}
</style>
<path class="st0" d="M731.8,149.4V124h25.4v25.4H731.8z"/>
<g>
	<path class="st0" d="M74,0l21.2,1v144H74v-27.6c-9.8,5.5-25.5,13.4-35.4,17.3l-6.2-21.7C43.8,109,61.1,101.7,74,95.2V57.8H40.4
		V36.6H74V0z M178.3,103c-0.2,2.8-0.3,5.5-0.7,8.3c-0.5,4.7-1.1,10.6-1.8,15.2c-1.8,11.6-7.5,15.5-15.5,16.3
		c-7.3,0.8-26.1,1-34.4,0.2c-10.6-1.3-16-7.3-16-18.3V0l21.2,1.3v42.4c12.2-6.4,23-14,32.2-21.1l11.3,18.4
		C164,49,148.3,58.3,131.2,65.5v50.1c0,3.9,0.5,7,3.9,7.5c6.4,0.7,9.6,0.7,14.9,0c3.9-0.5,5.7-2.6,6.4-7.2c0.7-4.6,0.8-9.5,1.3-13.2
		l0.5-6.5L178.3,103z"/>
	<path class="st0" d="M356.6,107.6c-1.1,8.5-2.8,16-4.2,21.7c-3.4,13.1-11.4,18.9-17.8,18.9c-7,0-12.7-5.1-15.8-15.5
		c-1.3-4.4-2.3-8.8-3.4-15.2l-14.9,13.5c-5.9-10.4-13.1-22.4-20.7-34.8c-9.8,13.9-19.7,26.4-29.7,36.4L236.9,120
		c-3.1,8.5-6.5,17-11.6,26l-18.3-9.5c13.5-24,17.6-41.3,17.6-63.7V3.3h108.4v68.1c0,21.5,0,26.9,0.5,34.4c0.5,9.8,1.3,15.3,3.1,15.3
		c1.8,0,3.1-4.4,3.9-10.1c0.5-3.4,0.7-7.2,1.1-11.9L356.6,107.6z M268.4,78.7c-9.1-13.7-17.5-26.3-24-34.6v30
		c0,13.5-1.6,26.9-6,41.1C249,104.6,259.1,92.4,268.4,78.7z M314.8,113.6c-1.1-7.8-1.6-17.8-1.6-32.2V23.2h-68.7v17.6L258,31
		c6,7.2,13.5,17.5,21.9,29.2c6-10.8,11.4-21.9,15.8-33.1l17.1,9.3c-6.4,14.2-13.4,27.9-21.1,41C300.4,90.3,308.4,103.2,314.8,113.6z
		"/>
	<path class="st0" d="M524.2,3.1V143H394.5V3.1H524.2z M503.8,21.5h-88.5v103.6h88.5V21.5z M415.8,91.9
		c13.7-8.3,29.9-22.4,40.8-35.4h-36.4V38.8h46.8V25.3l19.3,0.7v12.9h13.2v17.6h-13.2v38.8c0,18.8-2.8,23-21.9,24.8l-11.8,1
		l-5.4-17.8l10.8-0.8c8.3-0.5,9-1.5,9-10.9V70.3C456.6,84.7,444.6,96,426.8,109L415.8,91.9z"/>
	<path class="st0" d="M604.9,116.4l-6.2,1l-6.9-19.1l7.7-1.1c8.5-1.3,10.3-2.6,10.3-9.8c0-7.2-4.1-17.5-15-29.1
		c5.1-11.1,9.5-22,13.2-33.1h-17.6v120.5h-18.9V5.2h56.8v19.9c-3.8,10-7.8,19.9-12.9,29.9c9.6,12.4,13.9,23.8,13.9,35.1
		C629.2,109.8,624.1,113.3,604.9,116.4z M696.1,148.4c-17-17.6-28.9-35.6-36.6-57.3c-5.9,20.1-16.8,39.2-37.1,58.9L608,134.3
		c30.8-28.7,39.2-56.1,38.7-114.1V1l19.8,0.5v22.7c0,5.7,0,10.9-0.2,16.3c3.4,41.6,16.8,64.5,44.6,90.9L696.1,148.4z"/>
</g>
</svg>
